<svg data-v-423bf9ae="" xmlns="http://www.w3.org/2000/svg" viewBox="0 0 590 90" class="iconLeft"><!----><!----><!----><g data-v-423bf9ae="" id="913b3c38-7173-498a-8b66-b6f5babad7af" fill="#D72C6B" transform="matrix(5.797101235611727,0,0,5.797101235611727,108.376800691254,-4.304347625977641)"><path d="M0.28 3.71L0.28 3.71Q0.28 3.50 0.67 3.50L0.67 3.50Q0.81 3.50 1.32 3.53Q1.82 3.56 2.25 3.56L2.25 3.56Q2.52 3.56 2.77 3.54Q3.01 3.53 3.49 3.53L3.49 3.53Q3.86 3.53 3.86 3.72L3.86 3.72Q3.86 3.84 3.22 4.10L3.22 4.10Q2.77 4.28 2.77 5.71L2.77 5.71Q2.77 7.60 2.75 9.05Q2.73 10.50 2.73 10.89L2.73 10.89Q2.73 12.07 3.08 12.59L3.08 12.59Q3.39 13.02 3.75 13.02L3.75 13.02Q3.78 13.02 3.89 13.03Q4.00 13.03 4.03 13.03L4.03 13.03Q4.13 13.03 4.23 13.08Q4.33 13.13 4.33 13.19L4.33 13.19Q4.33 13.34 4.25 13.39Q4.17 13.44 3.98 13.44L3.98 13.44Q3.56 13.44 3.20 13.41Q2.84 13.38 2.65 13.38L2.65 13.38Q2.25 13.38 1.79 13.42Q1.33 13.45 1.11 13.45L1.11 13.45Q0.48 13.45 0.48 13.24L0.48 13.24Q0.48 13.12 0.61 13.07Q0.74 13.02 0.91 13.00Q1.08 12.98 1.26 12.82Q1.44 12.66 1.51 12.35L1.51 12.35Q1.54 12.25 1.60 10.76Q1.67 9.27 1.67 8.61L1.67 8.61L1.67 7.81Q1.67 7.63 1.67 7.12Q1.68 6.61 1.68 6.30L1.68 6.30L1.68 5.66Q1.68 5.04 1.62 4.63L1.62 4.63Q1.58 4.30 1.25 4.12Q0.92 3.93 0.57 3.92L0.57 3.92Q0.28 3.91 0.28 3.71ZM5.21 8.69L5.21 8.69Q5.21 6.34 6.62 4.84Q8.04 3.33 10.63 3.33L10.63 3.33Q11.83 3.33 12.80 3.68Q13.76 4.03 14.32 4.54Q14.88 5.05 15.26 5.71Q15.64 6.37 15.78 6.92Q15.92 7.48 15.92 7.95L15.92 7.95Q15.92 9.86 15.18 11.16Q14.43 12.47 13.22 13.07Q12.01 13.66 10.43 13.66L10.43 13.66Q8.76 13.66 7.55 12.94Q6.34 12.21 5.78 11.10Q5.21 10.00 5.21 8.69ZM6.44 7.98L6.44 7.98Q6.44 8.54 6.59 9.19Q6.75 9.84 7.10 10.54Q7.45 11.23 7.95 11.78Q8.44 12.33 9.21 12.69Q9.97 13.05 10.88 13.05L10.88 13.05Q11.35 13.05 11.88 12.90Q12.40 12.75 12.92 12.45Q13.44 12.14 13.85 11.70Q14.25 11.26 14.51 10.62Q14.77 9.98 14.77 9.24L14.77 9.24Q14.77 6.71 13.44 5.30Q12.11 3.89 10.15 3.89L10.15 3.89Q8.61 3.89 7.53 4.93Q6.44 5.96 6.44 7.98ZM16.60 3.77L16.60 3.77Q16.60 3.68 16.70 3.60Q16.80 3.53 16.95 3.53L16.95 3.53Q17.04 3.53 17.23 3.54Q17.43 3.54 17.49 3.54L17.49 3.54Q17.70 3.54 17.88 3.53Q18.06 3.51 18.17 3.51L18.17 3.51Q18.30 3.51 18.47 3.59Q18.63 3.67 18.66 3.75L18.66 3.75Q18.69 3.79 18.82 3.94Q18.94 4.09 19.15 4.33Q19.36 4.56 19.53 4.79L19.53 4.79Q21.43 7.27 24.63 10.77L24.63 10.77Q24.71 10.86 24.83 10.99Q24.95 11.12 25.00 11.18Q25.05 11.24 25.10 11.30Q25.16 11.35 25.19 11.38Q25.23 11.40 25.26 11.40L25.26 11.40Q25.40 11.40 25.40 10.53L25.40 10.53L25.40 8.89Q25.40 7.95 25.39 7.31Q25.38 6.66 25.38 6.38Q25.37 6.09 25.37 6.02L25.37 6.02L25.37 5.92Q25.37 5.45 25.30 5.11Q25.24 4.77 25.16 4.59Q25.07 4.41 24.91 4.28Q24.75 4.16 24.64 4.12Q24.53 4.09 24.32 4.05Q24.11 4.00 24.02 3.98L24.02 3.98Q23.74 3.89 23.74 3.74L23.74 3.74Q23.74 3.53 24.01 3.53L24.01 3.53Q24.09 3.53 24.68 3.54Q25.27 3.54 25.34 3.54L25.34 3.54Q25.68 3.54 26.09 3.53Q26.50 3.51 26.60 3.51L26.60 3.51Q26.84 3.51 26.93 3.56Q27.02 3.61 27.02 3.75L27.02 3.75Q27.02 3.81 26.94 3.86Q26.87 3.91 26.78 3.94Q26.70 3.98 26.61 4.00L26.61 4.00L26.53 4.03Q26.07 4.28 26.07 5.61L26.07 5.61L26.07 6.15Q26.07 7.21 25.99 9.83Q25.91 12.46 25.91 13.08L25.91 13.08L25.91 13.36Q25.91 13.68 25.72 13.68L25.72 13.68Q25.59 13.68 25.49 13.58L25.49 13.58Q20.85 8.19 19.94 7.17Q19.04 6.16 18.94 6.16L18.94 6.16Q18.80 6.16 18.80 7.11L18.80 7.11Q18.80 8.44 18.75 9.97Q18.69 11.51 18.69 11.65L18.69 11.65Q18.69 12.28 18.91 12.61Q19.12 12.94 19.38 12.98Q19.63 13.02 19.84 13.07Q20.06 13.12 20.06 13.26L20.06 13.26Q20.06 13.41 20.01 13.45Q19.96 13.50 19.84 13.50L19.84 13.50Q19.74 13.50 19.40 13.48Q19.05 13.47 18.34 13.47L18.34 13.47Q18.21 13.47 17.82 13.48Q17.43 13.50 17.15 13.50L17.15 13.50Q16.84 13.50 16.84 13.27L16.84 13.27Q16.84 13.15 17.02 13.11Q17.21 13.08 17.47 12.89Q17.74 12.71 17.88 12.21L17.88 12.21Q17.96 11.89 18.09 9.60Q18.21 7.32 18.21 6.45L18.21 6.45Q18.21 5.25 17.88 4.65Q17.54 4.06 16.79 3.98L16.79 3.98Q16.60 3.96 16.60 3.77ZM27.78 3.71L27.78 3.71Q27.78 3.50 28.03 3.50L28.03 3.50Q28.11 3.50 28.41 3.53Q28.71 3.56 28.77 3.56L28.77 3.56Q28.98 3.56 29.34 3.54Q29.71 3.53 29.82 3.53L29.82 3.53Q30.09 3.53 30.16 3.72L30.16 3.72Q30.32 4.09 30.76 5.03Q31.19 5.98 31.45 6.54Q31.71 7.10 32.12 7.97Q32.52 8.83 32.77 9.37Q33.03 9.91 33.30 10.46Q33.57 11.00 33.72 11.26Q33.87 11.52 33.91 11.52Q33.95 11.52 34.00 11.47Q34.05 11.42 34.10 11.34Q34.15 11.26 34.18 11.17Q34.22 11.09 34.28 10.96Q34.34 10.82 34.37 10.75L34.37 10.75L36.18 7.03Q36.48 6.40 36.72 5.89Q36.96 5.39 37.10 5.08Q37.24 4.77 37.34 4.55Q37.44 4.33 37.48 4.21Q37.53 4.10 37.55 4.04Q37.58 3.98 37.59 3.94Q37.60 3.91 37.62 3.88Q37.63 3.85 37.67 3.75Q37.70 3.65 37.74 3.62Q37.77 3.58 37.88 3.54Q37.98 3.50 38.15 3.50L38.15 3.50Q38.42 3.50 38.65 3.51Q38.88 3.53 39.35 3.53L39.35 3.53Q39.59 3.53 39.59 3.71L39.59 3.71Q39.59 3.85 39.50 3.91Q39.41 3.98 39.13 4.02L39.13 4.02Q38.78 4.06 38.64 4.37Q38.50 4.68 38.50 5.54L38.50 5.54Q38.50 7.43 38.58 8.97Q38.67 10.50 38.67 10.89L38.67 10.89Q38.67 12.29 38.89 12.68Q39.12 13.06 39.83 13.06L39.83 13.06Q39.93 13.06 40.00 13.13Q40.08 13.20 40.08 13.26L40.08 13.26Q40.08 13.34 40.07 13.38Q40.05 13.43 40.01 13.45Q39.97 13.48 39.93 13.48Q39.89 13.48 39.77 13.48L39.77 13.48Q39.35 13.48 38.95 13.45Q38.54 13.43 38.35 13.43L38.35 13.43Q37.95 13.43 37.53 13.46Q37.11 13.50 36.89 13.50L36.89 13.50Q36.64 13.50 36.64 13.30L36.64 13.30Q36.64 13.17 36.75 13.12Q36.86 13.06 37.01 13.05Q37.16 13.03 37.32 12.87Q37.48 12.71 37.55 12.39L37.55 12.39Q37.60 12.11 37.60 11.49L37.60 11.49Q37.60 11.05 37.58 10.42Q37.56 9.79 37.53 9.19Q37.51 8.60 37.48 8.07Q37.45 7.55 37.44 7.21L37.44 7.21L37.41 6.87Q37.41 6.27 37.28 6.27L37.28 6.27Q37.27 6.27 37.24 6.29Q37.21 6.30 37.19 6.33Q37.17 6.36 37.14 6.38Q37.11 6.41 37.09 6.47Q37.06 6.54 37.03 6.58Q37.00 6.62 36.96 6.70Q36.92 6.78 36.89 6.83Q36.86 6.89 36.81 6.99Q36.76 7.08 36.74 7.15L36.74 7.15L34.79 11.09Q34.45 11.77 34.08 12.56L34.08 12.56Q33.82 13.09 33.77 13.18Q33.71 13.27 33.63 13.27L33.63 13.27Q33.50 13.27 33.42 13.15Q33.33 13.03 33.17 12.63Q33.00 12.22 32.87 11.96L32.87 11.96Q30.31 6.75 30.24 6.65L30.24 6.65Q30.20 6.59 30.16 6.59L30.16 6.59Q30.04 6.59 30.04 7.15L30.04 7.15Q30.03 8.25 29.97 9.31Q29.92 10.37 29.92 10.85L29.92 10.85L29.92 11.48Q29.92 11.84 29.94 12.04Q29.96 12.24 30.05 12.49Q30.14 12.75 30.38 12.89Q30.62 13.03 31.00 13.08L31.00 13.08Q31.07 13.08 31.13 13.13Q31.19 13.17 31.19 13.23L31.19 13.23Q31.19 13.38 31.15 13.43Q31.11 13.48 30.98 13.48L30.98 13.48Q30.70 13.48 30.14 13.45Q29.58 13.43 29.53 13.43L29.53 13.43Q29.50 13.43 29.12 13.45Q28.74 13.47 28.38 13.47L28.38 13.47Q28.27 13.47 28.22 13.45Q28.17 13.44 28.13 13.39Q28.08 13.34 28.08 13.24L28.08 13.24Q28.08 13.13 28.21 13.09Q28.34 13.05 28.50 13.04Q28.66 13.03 28.85 12.82Q29.05 12.60 29.15 12.18L29.15 12.18Q29.22 11.87 29.32 9.74Q29.41 7.62 29.41 6.59L29.41 6.59Q29.41 5.19 29.14 4.66Q28.87 4.13 27.96 3.92L27.96 3.92Q27.78 3.88 27.78 3.71ZM40.64 3.71L40.64 3.71Q40.64 3.50 41.03 3.50L41.03 3.50Q41.17 3.50 41.68 3.53Q42.18 3.56 42.62 3.56L42.62 3.56Q42.88 3.56 43.13 3.54Q43.37 3.53 43.85 3.53L43.85 3.53Q44.23 3.53 44.23 3.72L44.23 3.72Q44.23 3.84 43.58 4.10L43.58 4.10Q43.13 4.28 43.13 5.71L43.13 5.71Q43.13 7.60 43.11 9.05Q43.09 10.50 43.09 10.89L43.09 10.89Q43.09 12.07 43.44 12.59L43.44 12.59Q43.75 13.02 44.11 13.02L44.11 13.02Q44.14 13.02 44.25 13.03Q44.37 13.03 44.39 13.03L44.39 13.03Q44.49 13.03 44.59 13.08Q44.69 13.13 44.69 13.19L44.69 13.19Q44.69 13.34 44.61 13.39Q44.53 13.44 44.34 13.44L44.34 13.44Q43.92 13.44 43.56 13.41Q43.20 13.38 43.01 13.38L43.01 13.38Q42.62 13.38 42.15 13.42Q41.69 13.45 41.47 13.45L41.47 13.45Q40.84 13.45 40.84 13.24L40.84 13.24Q40.84 13.12 40.97 13.07Q41.10 13.02 41.27 13.00Q41.44 12.98 41.62 12.82Q41.80 12.66 41.87 12.35L41.87 12.35Q41.90 12.25 41.96 10.76Q42.03 9.27 42.03 8.61L42.03 8.61L42.03 7.81Q42.03 7.63 42.03 7.12Q42.04 6.61 42.04 6.30L42.04 6.30L42.04 5.66Q42.04 5.04 41.99 4.63L41.99 4.63Q41.94 4.30 41.61 4.12Q41.29 3.93 40.94 3.92L40.94 3.92Q40.64 3.91 40.64 3.71ZM45.23 3.77L45.23 3.77Q45.23 3.68 45.33 3.60Q45.43 3.53 45.58 3.53L45.58 3.53Q45.67 3.53 45.86 3.54Q46.06 3.54 46.12 3.54L46.12 3.54Q46.33 3.54 46.51 3.53Q46.69 3.51 46.80 3.51L46.80 3.51Q46.93 3.51 47.10 3.59Q47.26 3.67 47.29 3.75L47.29 3.75Q47.32 3.79 47.45 3.94Q47.57 4.09 47.78 4.33Q47.99 4.56 48.16 4.79L48.16 4.79Q50.06 7.27 53.26 10.77L53.26 10.77Q53.34 10.86 53.46 10.99Q53.58 11.12 53.63 11.18Q53.68 11.24 53.73 11.30Q53.79 11.35 53.82 11.38Q53.86 11.40 53.89 11.40L53.89 11.40Q54.03 11.40 54.03 10.53L54.03 10.53L54.03 8.89Q54.03 7.95 54.02 7.31Q54.01 6.66 54.00 6.38Q54.00 6.09 54.00 6.02L54.00 6.02L54.00 5.92Q54.00 5.45 53.93 5.11Q53.87 4.77 53.79 4.59Q53.70 4.41 53.54 4.28Q53.38 4.16 53.27 4.12Q53.16 4.09 52.95 4.05Q52.74 4.00 52.65 3.98L52.65 3.98Q52.37 3.89 52.37 3.74L52.37 3.74Q52.37 3.53 52.64 3.53L52.64 3.53Q52.72 3.53 53.31 3.54Q53.90 3.54 53.97 3.54L53.97 3.54Q54.31 3.54 54.72 3.53Q55.13 3.51 55.23 3.51L55.23 3.51Q55.47 3.51 55.56 3.56Q55.65 3.61 55.65 3.75L55.65 3.75Q55.65 3.81 55.57 3.86Q55.50 3.91 55.41 3.94Q55.33 3.98 55.24 4.00L55.24 4.00L55.16 4.03Q54.70 4.28 54.70 5.61L54.70 5.61L54.70 6.15Q54.70 7.21 54.62 9.83Q54.54 12.46 54.54 13.08L54.54 13.08L54.54 13.36Q54.54 13.68 54.35 13.68L54.35 13.68Q54.22 13.68 54.12 13.58L54.12 13.58Q49.48 8.19 48.57 7.17Q47.67 6.16 47.57 6.16L47.57 6.16Q47.43 6.16 47.43 7.11L47.43 7.11Q47.43 8.44 47.38 9.97Q47.32 11.51 47.32 11.65L47.32 11.65Q47.32 12.28 47.54 12.61Q47.75 12.94 48.01 12.98Q48.26 13.02 48.47 13.07Q48.69 13.12 48.69 13.26L48.69 13.26Q48.69 13.41 48.64 13.45Q48.59 13.50 48.47 13.50L48.47 13.50Q48.37 13.50 48.03 13.48Q47.68 13.47 46.97 13.47L46.97 13.47Q46.84 13.47 46.45 13.48Q46.06 13.50 45.78 13.50L45.78 13.50Q45.47 13.50 45.47 13.27L45.47 13.27Q45.47 13.15 45.65 13.11Q45.84 13.08 46.10 12.89Q46.37 12.71 46.51 12.21L46.51 12.21Q46.59 11.89 46.72 9.60Q46.84 7.32 46.84 6.45L46.84 6.45Q46.84 5.25 46.51 4.65Q46.17 4.06 45.42 3.98L45.42 3.98Q45.23 3.96 45.23 3.77ZM56.41 3.71L56.41 3.71Q56.41 3.50 56.80 3.50L56.80 3.50Q56.94 3.50 57.44 3.53Q57.95 3.56 58.38 3.56L58.38 3.56Q58.65 3.56 58.89 3.54Q59.14 3.53 59.61 3.53L59.61 3.53Q59.99 3.53 59.99 3.72L59.99 3.72Q59.99 3.84 59.35 4.10L59.35 4.10Q58.90 4.28 58.90 5.71L58.90 5.71Q58.90 7.60 58.88 9.05Q58.86 10.50 58.86 10.89L58.86 10.89Q58.86 12.07 59.21 12.59L59.21 12.59Q59.51 13.02 59.88 13.02L59.88 13.02Q59.91 13.02 60.02 13.03Q60.13 13.03 60.16 13.03L60.16 13.03Q60.26 13.03 60.35 13.08Q60.45 13.13 60.45 13.19L60.45 13.19Q60.45 13.34 60.37 13.39Q60.30 13.44 60.10 13.44L60.10 13.44Q59.68 13.44 59.32 13.41Q58.97 13.38 58.77 13.38L58.77 13.38Q58.38 13.38 57.92 13.42Q57.46 13.45 57.23 13.45L57.23 13.45Q56.60 13.45 56.60 13.24L56.60 13.24Q56.60 13.12 56.73 13.07Q56.87 13.02 57.04 13.00Q57.20 12.98 57.39 12.82Q57.57 12.66 57.64 12.35L57.64 12.35Q57.67 12.25 57.73 10.76Q57.79 9.27 57.79 8.61L57.79 8.61L57.79 7.81Q57.79 7.63 57.80 7.12Q57.81 6.61 57.81 6.30L57.81 6.30L57.81 5.66Q57.81 5.04 57.75 4.63L57.75 4.63Q57.71 4.30 57.38 4.12Q57.05 3.93 56.70 3.92L56.70 3.92Q56.41 3.91 56.41 3.71ZM61.00 3.77L61.00 3.77Q61.00 3.68 61.10 3.60Q61.19 3.53 61.35 3.53L61.35 3.53Q61.43 3.53 61.63 3.54Q61.82 3.54 61.88 3.54L61.88 3.54Q62.09 3.54 62.27 3.53Q62.45 3.51 62.57 3.51L62.57 3.51Q62.69 3.51 62.86 3.59Q63.03 3.67 63.06 3.75L63.06 3.75Q63.08 3.79 63.21 3.94Q63.34 4.09 63.55 4.33Q63.76 4.56 63.92 4.79L63.92 4.79Q65.83 7.27 69.02 10.77L69.02 10.77Q69.10 10.86 69.22 10.99Q69.34 11.12 69.39 11.18Q69.44 11.24 69.50 11.30Q69.55 11.35 69.59 11.38Q69.62 11.40 69.65 11.40L69.65 11.40Q69.79 11.40 69.79 10.53L69.79 10.53L69.79 8.89Q69.79 7.95 69.78 7.31Q69.78 6.66 69.77 6.38Q69.76 6.09 69.76 6.02L69.76 6.02L69.76 5.92Q69.76 5.45 69.70 5.11Q69.64 4.77 69.55 4.59Q69.47 4.41 69.31 4.28Q69.15 4.16 69.03 4.12Q68.92 4.09 68.71 4.05Q68.50 4.00 68.42 3.98L68.42 3.98Q68.14 3.89 68.14 3.74L68.14 3.74Q68.14 3.53 68.40 3.53L68.40 3.53Q68.49 3.53 69.08 3.54Q69.66 3.54 69.73 3.54L69.73 3.54Q70.07 3.54 70.48 3.53Q70.90 3.51 70.99 3.51L70.99 3.51Q71.23 3.51 71.32 3.56Q71.41 3.61 71.41 3.75L71.41 3.75Q71.41 3.81 71.34 3.86Q71.26 3.91 71.18 3.94Q71.09 3.98 71.01 4.00L71.01 4.00L70.92 4.03Q70.46 4.28 70.46 5.61L70.46 5.61L70.46 6.15Q70.46 7.21 70.38 9.83Q70.31 12.46 70.31 13.08L70.31 13.08L70.31 13.36Q70.31 13.68 70.11 13.68L70.11 13.68Q69.99 13.68 69.89 13.58L69.89 13.58Q65.24 8.19 64.34 7.17Q63.43 6.16 63.34 6.16L63.34 6.16Q63.20 6.16 63.20 7.11L63.20 7.11Q63.20 8.44 63.14 9.97Q63.08 11.51 63.08 11.65L63.08 11.65Q63.08 12.28 63.30 12.61Q63.52 12.94 63.77 12.98Q64.02 13.02 64.24 13.07Q64.46 13.12 64.46 13.26L64.46 13.26Q64.46 13.41 64.41 13.45Q64.36 13.50 64.23 13.50L64.23 13.50Q64.13 13.50 63.79 13.48Q63.45 13.47 62.73 13.47L62.73 13.47Q62.61 13.47 62.22 13.48Q61.82 13.50 61.54 13.50L61.54 13.50Q61.24 13.50 61.24 13.27L61.24 13.27Q61.24 13.15 61.42 13.11Q61.60 13.08 61.87 12.89Q62.13 12.71 62.27 12.21L62.27 12.21Q62.36 11.89 62.48 9.60Q62.61 7.32 62.61 6.45L62.61 6.45Q62.61 5.25 62.27 4.65Q61.94 4.06 61.18 3.98L61.18 3.98Q61.00 3.96 61.00 3.77ZM72.51 8.83L72.51 8.83Q72.51 7.31 73.11 6.09Q73.72 4.87 74.98 4.12Q76.24 3.37 77.98 3.37L77.98 3.37Q78.65 3.37 79.24 3.48Q79.83 3.58 80.21 3.72Q80.58 3.86 80.86 4.01Q81.14 4.16 81.29 4.26Q81.44 4.37 81.47 4.37L81.47 4.37Q81.51 4.37 81.65 4.26Q81.80 4.16 81.86 4.16L81.86 4.16Q82.07 4.16 82.07 4.44L82.07 4.44Q82.08 4.84 82.13 5.29Q82.18 5.74 82.22 6.03Q82.26 6.33 82.26 6.38L82.26 6.38Q82.26 6.62 82.10 6.62Q81.93 6.62 81.86 6.45L81.86 6.45Q81.37 5.39 80.22 4.65Q79.07 3.92 77.85 3.92L77.85 3.92Q76.10 3.92 74.96 5.02Q73.82 6.12 73.82 8.06L73.82 8.06Q73.82 9.35 74.30 10.49Q74.77 11.62 75.75 12.36Q76.72 13.10 77.98 13.10L77.98 13.10Q79.06 13.10 79.93 12.61Q80.81 12.12 80.91 11.49L80.91 11.49Q80.95 11.16 80.95 9.73L80.95 9.73Q80.95 9.18 80.71 8.95L80.71 8.95Q80.54 8.78 80.09 8.72L80.09 8.72Q79.67 8.68 79.60 8.55L79.60 8.55Q79.58 8.50 79.58 8.41L79.58 8.41Q79.58 8.26 79.83 8.26L79.83 8.26Q80.01 8.26 80.61 8.29Q81.21 8.33 81.38 8.33L81.38 8.33Q81.66 8.33 81.98 8.32Q82.31 8.32 82.50 8.32L82.50 8.32L82.71 8.32Q82.94 8.32 82.94 8.44L82.94 8.44Q82.94 8.54 82.58 8.69Q82.22 8.85 82.18 9.09L82.18 9.09Q82.08 9.69 82.08 10.65L82.08 10.65Q82.08 11.07 82.10 11.40Q82.11 11.72 82.12 11.85Q82.12 11.98 82.14 12.08Q82.15 12.18 82.15 12.22L82.15 12.22Q82.15 12.29 82.05 12.33Q81.94 12.36 81.70 12.42Q81.47 12.49 81.27 12.60L81.27 12.60L81.17 12.66Q81.07 12.73 80.98 12.78Q80.88 12.84 80.72 12.92Q80.56 13.01 80.39 13.09Q80.22 13.17 80.01 13.26Q79.80 13.36 79.58 13.43Q79.35 13.50 79.11 13.55Q78.88 13.61 78.62 13.64Q78.36 13.68 78.11 13.68L78.11 13.68Q76.58 13.68 75.45 13.26Q74.33 12.85 73.71 12.14Q73.09 11.44 72.80 10.61Q72.51 9.79 72.51 8.83Z"></path></g><!----><g data-v-423bf9ae="" id="54d26eea-8bfa-4628-90b8-428884d195f3" transform="matrix(2.8125,0,0,2.8125,0,0)" stroke="none" fill="#D72C6B"><path d="M4.029 14.362L14.362 4.028l.707.707L4.736 15.07zM17.135 27.47L27.47 17.135l.707.707-10.333 10.333zM4.029 17.841l.707-.707 10.333 10.334-.707.707zM17.135 4.735l.708-.707L28.176 14.36l-.707.707z"></path><g><path d="M16 1.414l1.683 1.683L16 4.779l-1.683-1.683L16 1.414M16 0l-3.097 3.097L16 6.194l3.097-3.097L16 0zM16 27.221l1.683 1.683L16 30.586l-1.683-1.683L16 27.221m0-1.415l-3.097 3.097L16 32l3.097-3.097L16 25.806zM3.097 14.317L4.779 16l-1.683 1.683L1.414 16l1.683-1.683m0-1.414L0 16l3.097 3.097L6.194 16l-3.097-3.097zM28.903 14.317L30.586 16l-1.683 1.683L27.221 16l1.682-1.683m0-1.414L25.806 16l3.097 3.097L32 16l-3.097-3.097z"></path></g></g><!----></svg>